# xmcd
#
# Track frame offsets: 
#        150
#        13970
#        29965
#
# Disc length: 650 seconds
#
# Revision: 0
# Processed by: cddbd v1.4PL0 Copyright (c) Steve Scherf et al.
# Submitted via: ExactAudioCopy v0.95a4
#
DISCID=26028803
DTITLE=Jon Spencer Blues Explosion - 2kindsa love
DYEAR=1996
DGENRE=Blues Punk
TTITLE0=2Kindsa Love
TTITLE1=Fish Sauce
TTITLE2=Cool Vee
EXTD=
EXTT0=
EXTT1=
EXTT2=
PLAYORDER=
